<?xml version="1.0" standalone="no"?>
<!DOCTYPE svg PUBLIC "-//W3C//DTD SVG 20010904//EN"
 "http://www.w3.org/TR/2001/REC-SVG-20010904/DTD/svg10.dtd">
<svg version="1.0" xmlns="http://www.w3.org/2000/svg"
 width="2513.000000pt" height="2513.000000pt" viewBox="0 0 2513.000000 2513.000000"
 preserveAspectRatio="xMidYMid meet">
<metadata>
Created by potrace 1.14, written by Peter Selinger 2001-2017
</metadata>
<g transform="translate(0.000000,2513.000000) scale(0.100000,-0.100000)"
fill="#000000" stroke="none">
<path d="M3715 25111 c-134 -48 -222 -143 -259 -281 -10 -36 -12 -2141 -11
-9985 1 -5467 5 -9953 9 -9970 11 -47 54 -127 87 -164 46 -50 123 -99 186
-117 49 -14 853 -16 8837 -16 6751 0 8793 3 8827 12 134 36 252 158 280 288 9
44 12 2291 12 9992 l0 9935 -21 57 c-45 127 -145 221 -268 253 -52 13 -1028
15 -8844 15 -8452 -1 -8787 -1 -8835 -19z m6025 -10375 c128 -48 212 -134 255
-261 15 -43 17 -196 17 -1674 0 -1700 1 -1667 -42 -1751 -29 -56 -103 -133
-157 -162 -106 -58 41 -54 -2363 -53 -2049 2 -2218 3 -2260 19 -143 54 -232
153 -262 292 -11 47 -13 391 -12 1664 1 1446 3 1610 17 1660 16 56 57 127 96
167 53 55 154 106 231 115 14 2 1017 3 2230 2 2040 -1 2208 -2 2250 -18z
m8590 -578 c87 -24 129 -48 184 -103 34 -33 67 -71 75 -84 105 -188 38 -427
-151 -535 -45 -26 -58 -31 -128 -45 -19 -4 -1641 -6 -3605 -6 -3295 1 -3574 2
-3625 18 -178 53 -292 220 -276 404 14 171 134 310 301 348 37 9 966 11 3630
10 1969 -1 3587 -4 3595 -7z m-3147 -1569 c256 -47 394 -330 275 -562 -48 -95
-159 -178 -266 -200 -87 -18 -4038 -16 -4101 2 -283 81 -383 426 -186 639 55
60 118 98 195 118 55 14 4007 18 4083 3z m-5403 -2556 c106 -52 182 -141 220
-256 9 -30 12 -401 12 -1651 0 -888 -3 -1633 -7 -1657 -26 -155 -157 -283
-322 -316 -37 -7 -4399 -7 -4436 0 -152 30 -262 126 -312 272 -16 46 -17 164
-17 1650 0 880 1 1620 3 1645 6 83 47 166 114 233 51 51 85 71 164 97 50 16
199 17 2285 16 l2231 -1 65 -32z m8630 -590 c83 -41 153 -111 193 -193 29 -59
32 -74 32 -160 0 -86 -3 -101 -32 -162 -50 -106 -137 -181 -248 -213 -54 -16
-319 -17 -3634 -17 -1967 1 -3587 3 -3600 6 -87 19 -149 53 -210 116 -120 123
-143 317 -57 465 51 86 153 163 249 185 18 5 1654 7 3637 7 l3605 -2 65 -32z
m-3212 -1543 c24 -6 64 -20 90 -32 50 -23 142 -110 166 -156 114 -222 11 -483
-222 -561 l-62 -21 -2038 2 -2037 3 -68 33 c-85 42 -147 105 -189 190 -30 61
-33 74 -33 162 0 88 3 101 33 162 54 109 152 192 259 217 54 13 4046 13 4101
1z"/>
<path d="M1587 18524 c-1 -1 -49 -4 -107 -8 -130 -7 -161 -12 -280 -42 -620
-156 -1086 -676 -1174 -1309 -11 -85 -13 -1206 -11 -7305 l2 -7205 21 -97
c121 -562 492 -993 1017 -1183 81 -29 156 -48 325 -81 19 -4 1925 -8 4235 -10
l4200 -2 0 -243 0 -244 -520 -1 c-579 -1 -576 0 -680 -69 -278 -185 -196 -629
132 -706 69 -16 7167 -16 7236 0 224 53 359 288 287 500 -45 133 -129 216
-265 262 -31 10 -154 13 -557 14 -284 0 -520 3 -524 7 -4 4 -7 114 -8 243 l-1
235 80 1 c44 0 2024 1 4400 3 4098 2 4325 3 4415 20 199 37 420 124 583 230
256 165 481 431 593 701 14 33 29 69 34 80 10 24 41 123 46 148 2 10 6 27 9
37 3 10 8 34 10 55 3 20 7 40 10 44 2 4 7 48 11 97 10 114 10 14314 1 14414
-4 41 -14 107 -23 145 -8 39 -17 81 -20 95 -31 153 -186 457 -302 593 -241
282 -555 476 -877 541 -118 24 -119 24 -187 31 -48 5 -909 9 -1188 6 l-45 -1
0 -390 c0 -253 3 -390 10 -391 5 -1 267 -2 580 -4 314 -1 590 -5 615 -9 50 -8
179 -50 225 -74 175 -89 330 -267 390 -447 46 -138 43 210 42 -6780 l-2 -6590
-11759 0 c-11033 0 -11759 1 -11765 17 -8 23 -6 13119 3 13188 41 331 278 596
606 676 68 16 128 18 662 19 l588 0 0 393 0 392 -32 1 c-78 1 -1040 4 -1041 3z
m12501 -17224 l42 0 0 -240 c0 -132 -3 -241 -7 -241 -20 -3 -3499 -5 -3509 -2
-8 3 -11 77 -11 243 0 235 1 239 21 242 15 2 3170 1 3464 -2z"/>
</g>
</svg>
